<svg width="537" height="77" viewBox="0 0 537 77" fill="none" xmlns="http://www.w3.org/2000/svg">
<path d="M117.399 66.26C115.945 66.26 114.825 66.0133 114.039 65.52C113.265 65.0267 112.732 64.2933 112.439 63.32C112.145 62.3333 111.999 61.02 111.999 59.38C111.999 57.46 112.165 55.9933 112.499 54.98C112.845 53.9667 113.379 53.2667 114.099 52.88C114.819 52.4933 115.819 52.3 117.099 52.3C118.405 52.3 119.832 52.5 121.379 52.9L121.279 55.7C120.025 55.5267 119.012 55.44 118.239 55.44C117.532 55.44 116.992 55.5533 116.619 55.78C116.245 55.9933 115.985 56.34 115.839 56.82C115.705 57.2867 115.639 57.9533 115.639 58.82C115.639 59.26 115.645 59.6 115.659 59.84C115.699 60.8267 115.779 61.54 115.899 61.98C116.019 62.42 116.232 62.72 116.539 62.88C116.845 63.04 117.339 63.12 118.019 63.12C118.939 63.12 120.025 63.0467 121.279 62.9L121.339 65.78C119.899 66.1 118.585 66.26 117.399 66.26ZM127.081 66.26C125.481 66.26 124.315 65.8667 123.581 65.08C122.861 64.2933 122.501 63.0067 122.501 61.22C122.501 59.3933 122.881 58.0267 123.641 57.12C124.415 56.2 125.588 55.74 127.161 55.74C128.615 55.74 129.728 56.1133 130.501 56.86C131.288 57.6067 131.681 58.7 131.681 60.14L131.401 62.48H126.001C126.041 62.72 126.115 62.8933 126.221 63C126.341 63.1067 126.501 63.1733 126.701 63.2C126.901 63.2133 127.241 63.22 127.721 63.22C128.201 63.22 128.768 63.2067 129.421 63.18C130.088 63.1533 130.541 63.1267 130.781 63.1L131.321 63.04L131.361 65.54C129.881 66.02 128.455 66.26 127.081 66.26ZM128.281 59.88C128.281 59.36 128.201 59.0133 128.041 58.84C127.881 58.6533 127.575 58.56 127.121 58.56C126.668 58.56 126.368 58.6533 126.221 58.84C126.075 59.0133 125.995 59.36 125.981 59.88H128.281ZM133.295 56H136.755V56.46C137.182 56.1933 137.562 56.0067 137.895 55.9C138.229 55.7933 138.589 55.74 138.975 55.74C140.202 55.74 141.089 56.1533 141.635 56.98C142.182 57.7933 142.455 58.96 142.455 60.48V66H138.975V60.6C138.975 59.9867 138.882 59.54 138.695 59.26C138.522 58.98 138.195 58.84 137.715 58.84C137.689 58.84 137.615 58.84 137.495 58.84C137.375 58.84 137.182 58.8733 136.915 58.94H136.775V66H133.295V56ZM148.183 66.26C147.357 66.26 146.71 66.1333 146.243 65.88C145.777 65.6133 145.443 65.2 145.243 64.64C145.043 64.08 144.943 63.32 144.943 62.36V58.94H143.923V56H144.943V53.4H148.423V56H150.403V58.94H148.423V62.58C148.423 62.98 148.57 63.1667 148.863 63.14L150.223 63.16L150.343 65.9C149.77 66.0467 149.343 66.14 149.063 66.18C148.797 66.2333 148.503 66.26 148.183 66.26ZM152.084 56H155.544V56.86C156.704 56.26 157.664 55.8867 158.424 55.74V59.24C158.011 59.3333 157.498 59.42 156.884 59.5C156.778 59.5133 156.444 59.5667 155.884 59.66L155.564 59.72V66H152.084V56ZM164.035 66.26C162.435 66.26 161.268 65.8667 160.535 65.08C159.815 64.2933 159.455 63.0067 159.455 61.22C159.455 59.3933 159.835 58.0267 160.595 57.12C161.368 56.2 162.541 55.74 164.115 55.74C165.568 55.74 166.681 56.1133 167.455 56.86C168.241 57.6067 168.635 58.7 168.635 60.14L168.355 62.48H162.955C162.995 62.72 163.068 62.8933 163.175 63C163.295 63.1067 163.455 63.1733 163.655 63.2C163.855 63.2133 164.195 63.22 164.675 63.22C165.155 63.22 165.721 63.2067 166.375 63.18C167.041 63.1533 167.495 63.1267 167.735 63.1L168.275 63.04L168.315 65.54C166.835 66.02 165.408 66.26 164.035 66.26ZM165.235 59.88C165.235 59.36 165.155 59.0133 164.995 58.84C164.835 58.6533 164.528 58.56 164.075 58.56C163.621 58.56 163.321 58.6533 163.175 58.84C163.028 59.0133 162.948 59.36 162.935 59.88H165.235ZM175.163 58.94H174.203V56H175.163V55.86C175.163 54.8733 175.256 54.1 175.443 53.54C175.643 52.98 175.963 52.58 176.403 52.34C176.843 52.1 177.456 51.98 178.243 51.98L180.683 52.18L180.643 55.12C179.95 55.0533 179.45 55.02 179.143 55.02C178.996 55.02 178.876 55.1267 178.783 55.34C178.69 55.5533 178.643 55.7333 178.643 55.88V56H180.743V58.94H178.643V66H175.163V58.94ZM186.344 66.26C185.384 66.26 184.537 66.0333 183.804 65.58C183.084 65.1267 182.524 64.4933 182.124 63.68C181.737 62.8667 181.544 61.9467 181.544 60.92C181.544 59.92 181.737 59.0333 182.124 58.26C182.511 57.4733 183.064 56.86 183.784 56.42C184.504 55.9667 185.357 55.74 186.344 55.74C187.331 55.74 188.184 55.96 188.904 56.4C189.637 56.84 190.197 57.4533 190.584 58.24C190.971 59.0133 191.164 59.9067 191.164 60.92C191.164 61.96 190.964 62.8867 190.564 63.7C190.177 64.5 189.617 65.1267 188.884 65.58C188.151 66.0333 187.304 66.26 186.344 66.26ZM186.344 63.34C186.691 63.34 186.997 63.14 187.264 62.74C187.531 62.3267 187.664 61.72 187.664 60.92C187.664 60.1867 187.537 59.6267 187.284 59.24C187.031 58.8533 186.717 58.66 186.344 58.66C185.971 58.66 185.657 58.8533 185.404 59.24C185.164 59.6267 185.044 60.1867 185.044 60.92C185.044 61.72 185.171 62.3267 185.424 62.74C185.691 63.14 185.997 63.34 186.344 63.34ZM192.807 56H196.267V56.86C197.427 56.26 198.387 55.8867 199.147 55.74V59.24C198.734 59.3333 198.22 59.42 197.607 59.5C197.5 59.5133 197.167 59.5667 196.607 59.66L196.287 59.72V66H192.807V56ZM211.895 64.28H207.975L207.715 66H204.115L206.695 52.56H213.175L215.755 66H212.155L211.895 64.28ZM210.375 55.48H209.495L208.575 61.2H211.295L210.375 55.48ZM217.104 52.24H220.584V56.42C221.024 56.1667 221.404 55.9933 221.724 55.9C222.044 55.7933 222.417 55.74 222.844 55.74C224.044 55.74 224.911 56.1467 225.444 56.96C225.991 57.7733 226.264 58.9467 226.264 60.48V66H222.804V60.56C222.804 60 222.717 59.5733 222.544 59.28C222.384 58.9867 222.091 58.84 221.664 58.84C221.371 58.84 221.071 58.8733 220.764 58.94L220.584 58.98V66H217.104V52.24ZM228.513 52.24H231.993V66H228.513V52.24ZM237.631 66.26C236.364 66.26 235.478 65.86 234.971 65.06C234.464 64.2467 234.211 62.98 234.211 61.26V56H237.691V61.34C237.691 61.8867 237.711 62.28 237.751 62.52C237.791 62.7467 237.884 62.9133 238.031 63.02C238.178 63.1133 238.418 63.16 238.751 63.16C239.031 63.16 239.444 63.1267 239.991 63.06V56H243.451V66H240.031V65.54C239.458 65.8333 238.998 66.0267 238.651 66.12C238.318 66.2133 237.978 66.26 237.631 66.26ZM254.393 66.28C253.246 66.28 251.939 66.0867 250.473 65.7L249.753 65.54L250.113 62.82C251.873 63.06 253.233 63.18 254.193 63.18C255.233 63.18 255.753 62.82 255.753 62.1C255.753 61.8467 255.633 61.6467 255.393 61.5C255.166 61.3533 254.826 61.1933 254.373 61.02C254.079 60.9133 253.866 60.8267 253.733 60.76C252.226 60.2533 251.153 59.6733 250.513 59.02C249.886 58.3667 249.573 57.5467 249.573 56.56C249.573 55.16 249.999 54.1 250.853 53.38C251.706 52.66 252.866 52.3 254.333 52.3C254.933 52.3 255.499 52.34 256.033 52.42C256.579 52.5 257.573 52.6733 259.013 52.94L258.733 55.7C256.999 55.5 255.666 55.4 254.733 55.4C253.639 55.4 253.093 55.7 253.093 56.3C253.093 56.5 253.226 56.6733 253.493 56.82C253.759 56.9533 254.179 57.1267 254.753 57.34C255.339 57.5533 255.719 57.7 255.893 57.78C256.773 58.14 257.453 58.4933 257.933 58.84C258.413 59.1733 258.759 59.58 258.973 60.06C259.186 60.54 259.293 61.1467 259.293 61.88C259.293 62.8133 259.073 63.6133 258.633 64.28C258.206 64.9333 257.619 65.4333 256.873 65.78C256.139 66.1133 255.313 66.28 254.393 66.28ZM264.291 66.26C263.024 66.26 262.138 65.86 261.631 65.06C261.124 64.2467 260.871 62.98 260.871 61.26V56H264.351V61.34C264.351 61.8867 264.371 62.28 264.411 62.52C264.451 62.7467 264.544 62.9133 264.691 63.02C264.838 63.1133 265.078 63.16 265.411 63.16C265.691 63.16 266.104 63.1267 266.651 63.06V56H270.111V66H266.691V65.54C266.118 65.8333 265.658 66.0267 265.311 66.12C264.978 66.2133 264.638 66.26 264.291 66.26ZM272.338 56H275.798V56.46C276.225 56.1933 276.605 56.0067 276.938 55.9C277.272 55.7933 277.632 55.74 278.018 55.74C279.245 55.74 280.132 56.1533 280.678 56.98C281.225 57.7933 281.498 58.96 281.498 60.48V66H278.018V60.6C278.018 59.9867 277.925 59.54 277.738 59.26C277.565 58.98 277.238 58.84 276.758 58.84C276.732 58.84 276.658 58.84 276.538 58.84C276.418 58.84 276.225 58.8733 275.958 58.94H275.818V66H272.338V56ZM283.627 56H287.087V56.46C287.514 56.1933 287.894 56.0067 288.227 55.9C288.561 55.7933 288.921 55.74 289.307 55.74C290.534 55.74 291.421 56.1533 291.967 56.98C292.514 57.7933 292.787 58.96 292.787 60.48V66H289.307V60.6C289.307 59.9867 289.214 59.54 289.027 59.26C288.854 58.98 288.527 58.84 288.047 58.84C288.021 58.84 287.947 58.84 287.827 58.84C287.707 58.84 287.514 58.8733 287.247 58.94H287.107V66H283.627V56ZM297.536 66.26C296.43 66.26 295.603 65.98 295.056 65.42C294.523 64.8467 294.256 63.98 294.256 62.82C294.256 61.7133 294.55 60.94 295.136 60.5C295.736 60.0467 296.703 59.7867 298.036 59.72L299.516 59.64V59.18C299.516 58.9533 299.456 58.8133 299.336 58.76C299.23 58.6933 298.996 58.66 298.636 58.66L296.836 58.7C295.69 58.7533 295.076 58.7667 294.996 58.74L294.916 56.4C296.356 55.96 297.756 55.74 299.116 55.74C300.49 55.74 301.476 56.0133 302.076 56.56C302.676 57.0933 302.976 57.9667 302.976 59.18V62.7C302.99 62.8467 303.003 63.0133 303.016 63.2C303.03 63.3733 303.056 63.4933 303.096 63.56C303.136 63.6133 303.21 63.6533 303.316 63.68L303.216 66.26C302.39 66.26 301.77 66.22 301.356 66.14C300.956 66.0733 300.516 65.9067 300.036 65.64C299.21 66.0533 298.376 66.26 297.536 66.26ZM298.336 63.48C298.55 63.48 298.876 63.4467 299.316 63.38L299.516 63.36V61.98L298.456 62.06C298.23 62.0867 298.05 62.1667 297.916 62.3C297.783 62.4333 297.716 62.62 297.716 62.86C297.716 63.2733 297.923 63.48 298.336 63.48ZM305.268 52.24H308.748V56.42C309.188 56.1667 309.568 55.9933 309.888 55.9C310.208 55.7933 310.581 55.74 311.008 55.74C312.208 55.74 313.075 56.1467 313.608 56.96C314.155 57.7733 314.428 58.9467 314.428 60.48V66H310.968V60.56C310.968 60 310.881 59.5733 310.708 59.28C310.548 58.9867 310.255 58.84 309.828 58.84C309.535 58.84 309.235 58.8733 308.928 58.94L308.748 58.98V66H305.268V52.24ZM320.092 52.56H323.852L325.072 62.98H325.192L327.372 52.48H331.512L333.692 62.98H333.812L335.032 52.56H338.812L336.352 66H331.272L329.452 56.64L327.632 66H322.532L320.092 52.56ZM342.458 66.26C341.352 66.26 340.525 65.98 339.978 65.42C339.445 64.8467 339.178 63.98 339.178 62.82C339.178 61.7133 339.472 60.94 340.058 60.5C340.658 60.0467 341.625 59.7867 342.958 59.72L344.438 59.64V59.18C344.438 58.9533 344.378 58.8133 344.258 58.76C344.152 58.6933 343.918 58.66 343.558 58.66L341.758 58.7C340.612 58.7533 339.998 58.7667 339.918 58.74L339.838 56.4C341.278 55.96 342.678 55.74 344.038 55.74C345.412 55.74 346.398 56.0133 346.998 56.56C347.598 57.0933 347.898 57.9667 347.898 59.18V62.7C347.912 62.8467 347.925 63.0133 347.938 63.2C347.952 63.3733 347.978 63.4933 348.018 63.56C348.058 63.6133 348.132 63.6533 348.238 63.68L348.138 66.26C347.312 66.26 346.692 66.22 346.278 66.14C345.878 66.0733 345.438 65.9067 344.958 65.64C344.132 66.0533 343.298 66.26 342.458 66.26ZM343.258 63.48C343.472 63.48 343.798 63.4467 344.238 63.38L344.438 63.36V61.98L343.378 62.06C343.152 62.0867 342.972 62.1667 342.838 62.3C342.705 62.4333 342.638 62.62 342.638 62.86C342.638 63.2733 342.845 63.48 343.258 63.48ZM350.31 52.24H353.79V66H350.31V52.24ZM359.802 64.3C360.056 64.3 360.289 64.2133 360.502 64.04C360.716 63.8533 360.822 63.6333 360.822 63.38V52.56H364.382L364.402 63.44C364.402 64.3733 364.262 65.1267 363.982 65.7C363.716 66.26 363.249 66.68 362.582 66.96C361.916 67.24 360.989 67.38 359.802 67.38V64.3ZM369.333 66.26C368.227 66.26 367.4 65.98 366.853 65.42C366.32 64.8467 366.053 63.98 366.053 62.82C366.053 61.7133 366.347 60.94 366.933 60.5C367.533 60.0467 368.5 59.7867 369.833 59.72L371.313 59.64V59.18C371.313 58.9533 371.253 58.8133 371.133 58.76C371.027 58.6933 370.793 58.66 370.433 58.66L368.633 58.7C367.487 58.7533 366.873 58.7667 366.793 58.74L366.713 56.4C368.153 55.96 369.553 55.74 370.913 55.74C372.287 55.74 373.273 56.0133 373.873 56.56C374.473 57.0933 374.773 57.9667 374.773 59.18V62.7C374.787 62.8467 374.8 63.0133 374.813 63.2C374.827 63.3733 374.853 63.4933 374.893 63.56C374.933 63.6133 375.007 63.6533 375.113 63.68L375.013 66.26C374.187 66.26 373.567 66.22 373.153 66.14C372.753 66.0733 372.313 65.9067 371.833 65.64C371.007 66.0533 370.173 66.26 369.333 66.26ZM370.133 63.48C370.347 63.48 370.673 63.4467 371.113 63.38L371.313 63.36V61.98L370.253 62.06C370.027 62.0867 369.847 62.1667 369.713 62.3C369.58 62.4333 369.513 62.62 369.513 62.86C369.513 63.2733 369.72 63.48 370.133 63.48ZM377.065 56H380.525V56.46C381.005 56.1933 381.385 56.0067 381.665 55.9C381.958 55.7933 382.265 55.74 382.585 55.74C382.985 55.74 383.398 55.8133 383.825 55.96C384.265 56.1067 384.638 56.3267 384.945 56.62C385.638 56.2867 386.225 56.06 386.705 55.94C387.198 55.8067 387.692 55.74 388.185 55.74C389.452 55.74 390.365 56.1267 390.925 56.9C391.498 57.6733 391.785 58.8667 391.785 60.48V66H388.305V60.6C388.305 60.04 388.225 59.6067 388.065 59.3C387.918 58.9933 387.658 58.84 387.285 58.84C387.258 58.84 387.178 58.8467 387.045 58.86C386.912 58.86 386.698 58.8867 386.405 58.94L386.165 58.98L386.125 60.84V66H382.645V60.88C382.645 60.3333 382.618 59.92 382.565 59.64C382.512 59.36 382.405 59.16 382.245 59.04C382.098 58.9067 381.865 58.84 381.545 58.84C381.305 58.84 381.025 58.8733 380.705 58.94H380.545V66H377.065V56ZM393.881 56H397.341V56.46C397.821 56.1933 398.201 56.0067 398.481 55.9C398.775 55.7933 399.081 55.74 399.401 55.74C399.801 55.74 400.215 55.8133 400.641 55.96C401.081 56.1067 401.455 56.3267 401.761 56.62C402.455 56.2867 403.041 56.06 403.521 55.94C404.015 55.8067 404.508 55.74 405.001 55.74C406.268 55.74 407.181 56.1267 407.741 56.9C408.315 57.6733 408.601 58.8667 408.601 60.48V66H405.121V60.6C405.121 60.04 405.041 59.6067 404.881 59.3C404.735 58.9933 404.475 58.84 404.101 58.84C404.075 58.84 403.995 58.8467 403.861 58.86C403.728 58.86 403.515 58.8867 403.221 58.94L402.981 58.98L402.941 60.84V66H399.461V60.88C399.461 60.3333 399.435 59.92 399.381 59.64C399.328 59.36 399.221 59.16 399.061 59.04C398.915 58.9067 398.681 58.84 398.361 58.84C398.121 58.84 397.841 58.8733 397.521 58.94H397.361V66H393.881V56ZM413.318 66.26C412.211 66.26 411.384 65.98 410.838 65.42C410.304 64.8467 410.038 63.98 410.038 62.82C410.038 61.7133 410.331 60.94 410.918 60.5C411.518 60.0467 412.484 59.7867 413.818 59.72L415.298 59.64V59.18C415.298 58.9533 415.238 58.8133 415.118 58.76C415.011 58.6933 414.778 58.66 414.418 58.66L412.618 58.7C411.471 58.7533 410.858 58.7667 410.778 58.74L410.698 56.4C412.138 55.96 413.538 55.74 414.898 55.74C416.271 55.74 417.258 56.0133 417.858 56.56C418.458 57.0933 418.758 57.9667 418.758 59.18V62.7C418.771 62.8467 418.784 63.0133 418.798 63.2C418.811 63.3733 418.838 63.4933 418.878 63.56C418.918 63.6133 418.991 63.6533 419.098 63.68L418.998 66.26C418.171 66.26 417.551 66.22 417.138 66.14C416.738 66.0733 416.298 65.9067 415.818 65.64C414.991 66.0533 414.158 66.26 413.318 66.26ZM414.118 63.48C414.331 63.48 414.658 63.4467 415.098 63.38L415.298 63.36V61.98L414.238 62.06C414.011 62.0867 413.831 62.1667 413.698 62.3C413.564 62.4333 413.498 62.62 413.498 62.86C413.498 63.2733 413.704 63.48 414.118 63.48ZM420.695 52.56H423.995L423.815 57.6H420.775L420.695 52.56ZM428.63 66.26C427.523 66.26 426.697 65.98 426.15 65.42C425.617 64.8467 425.35 63.98 425.35 62.82C425.35 61.7133 425.643 60.94 426.23 60.5C426.83 60.0467 427.797 59.7867 429.13 59.72L430.61 59.64V59.18C430.61 58.9533 430.55 58.8133 430.43 58.76C430.323 58.6933 430.09 58.66 429.73 58.66L427.93 58.7C426.783 58.7533 426.17 58.7667 426.09 58.74L426.01 56.4C427.45 55.96 428.85 55.74 430.21 55.74C431.583 55.74 432.57 56.0133 433.17 56.56C433.77 57.0933 434.07 57.9667 434.07 59.18V62.7C434.083 62.8467 434.097 63.0133 434.11 63.2C434.123 63.3733 434.15 63.4933 434.19 63.56C434.23 63.6133 434.303 63.6533 434.41 63.68L434.31 66.26C433.483 66.26 432.863 66.22 432.45 66.14C432.05 66.0733 431.61 65.9067 431.13 65.64C430.303 66.0533 429.47 66.26 428.63 66.26ZM429.43 63.48C429.643 63.48 429.97 63.4467 430.41 63.38L430.61 63.36V61.98L429.55 62.06C429.323 62.0867 429.143 62.1667 429.01 62.3C428.877 62.4333 428.81 62.62 428.81 62.86C428.81 63.2733 429.017 63.48 429.43 63.48ZM436.362 52.24H439.842V56.42C440.282 56.1667 440.662 55.9933 440.982 55.9C441.302 55.7933 441.675 55.74 442.102 55.74C443.302 55.74 444.168 56.1467 444.702 56.96C445.248 57.7733 445.522 58.9467 445.522 60.48V66H442.062V60.56C442.062 60 441.975 59.5733 441.802 59.28C441.642 58.9867 441.348 58.84 440.922 58.84C440.628 58.84 440.328 58.8733 440.022 58.94L439.842 58.98V66H436.362V52.24ZM452.045 56H455.525V66H452.045V56ZM452.065 52.02H455.545V55.36H452.065V52.02ZM457.748 56H461.208V56.46C461.635 56.1933 462.015 56.0067 462.348 55.9C462.682 55.7933 463.042 55.74 463.428 55.74C464.655 55.74 465.542 56.1533 466.088 56.98C466.635 57.7933 466.908 58.96 466.908 60.48V66H463.428V60.6C463.428 59.9867 463.335 59.54 463.148 59.26C462.975 58.98 462.648 58.84 462.168 58.84C462.142 58.84 462.068 58.84 461.948 58.84C461.828 58.84 461.635 58.8733 461.368 58.94H461.228V66H457.748V56ZM485.092 52.56V66H479.392L477.232 55.74V66H473.672V52.56H479.512L481.492 62.5V52.56H485.092ZM487.514 56H490.994V66H487.514V56ZM487.534 52.02H491.014V55.36H487.534V52.02ZM497.34 70.54C495.94 70.54 494.787 70.34 493.88 69.94C492.987 69.5533 492.54 68.9067 492.54 68C492.54 67.5867 492.66 67.1667 492.9 66.74C493.14 66.3267 493.474 65.9467 493.9 65.6C493.327 65.2 493.04 64.7 493.04 64.1C493.04 63.8733 493.094 63.6533 493.2 63.44C493.307 63.2267 493.534 62.8733 493.88 62.38C493.48 61.98 493.174 61.5533 492.96 61.1C492.76 60.6333 492.66 60.1 492.66 59.5C492.66 58.2467 493.067 57.32 493.88 56.72C494.707 56.1067 495.794 55.8 497.14 55.8C497.674 55.8 498.347 55.8867 499.16 56.06L502.54 55.94V58.66L501.32 58.48C501.454 58.7867 501.534 59 501.56 59.12C501.587 59.2267 501.6 59.4067 501.6 59.66C501.6 60.8733 501.24 61.74 500.52 62.26C499.8 62.78 498.72 63.04 497.28 63.04C496.894 63.04 496.614 63.0133 496.44 62.96C496.374 63.0933 496.34 63.2733 496.34 63.5C496.34 63.6867 496.454 63.8067 496.68 63.86C496.907 63.9133 497.327 63.9533 497.94 63.98C499.06 64.02 499.947 64.1133 500.6 64.26C501.254 64.3933 501.76 64.66 502.12 65.06C502.48 65.46 502.66 66.06 502.66 66.86C502.66 68.1267 502.207 69.0533 501.3 69.64C500.407 70.24 499.087 70.54 497.34 70.54ZM497.18 60.44C497.487 60.44 497.734 60.3467 497.92 60.16C498.107 59.96 498.2 59.72 498.2 59.44C498.2 59.1467 498.107 58.9133 497.92 58.74C497.734 58.5533 497.48 58.46 497.16 58.46C496.854 58.46 496.607 58.5467 496.42 58.72C496.234 58.8933 496.14 59.1267 496.14 59.42C496.14 59.7133 496.234 59.96 496.42 60.16C496.62 60.3467 496.874 60.44 497.18 60.44ZM497.56 67.7C498.067 67.7 498.46 67.66 498.74 67.58C499.02 67.5 499.16 67.4 499.16 67.28C499.16 67.0533 498.967 66.94 498.58 66.94C498.447 66.94 498.32 66.9467 498.2 66.96C498.08 66.9733 497.967 66.98 497.86 66.98C497.78 66.98 497.72 66.9733 497.68 66.96L496.12 66.8C496.107 66.92 496.08 67.04 496.04 67.16C496 67.28 495.974 67.36 495.96 67.4C495.96 67.48 496.114 67.5467 496.42 67.6C496.727 67.6667 497.107 67.7 497.56 67.7ZM508.058 66.26C506.458 66.26 505.291 65.8667 504.558 65.08C503.838 64.2933 503.478 63.0067 503.478 61.22C503.478 59.3933 503.858 58.0267 504.618 57.12C505.391 56.2 506.565 55.74 508.138 55.74C509.591 55.74 510.705 56.1133 511.478 56.86C512.265 57.6067 512.658 58.7 512.658 60.14L512.378 62.48H506.978C507.018 62.72 507.091 62.8933 507.198 63C507.318 63.1067 507.478 63.1733 507.678 63.2C507.878 63.2133 508.218 63.22 508.698 63.22C509.178 63.22 509.745 63.2067 510.398 63.18C511.065 63.1533 511.518 63.1267 511.758 63.1L512.298 63.04L512.338 65.54C510.858 66.02 509.431 66.26 508.058 66.26ZM509.258 59.88C509.258 59.36 509.178 59.0133 509.018 58.84C508.858 58.6533 508.551 58.56 508.098 58.56C507.645 58.56 507.345 58.6533 507.198 58.84C507.051 59.0133 506.971 59.36 506.958 59.88H509.258ZM514.272 56H517.732V56.86C518.892 56.26 519.852 55.8867 520.612 55.74V59.24C520.199 59.3333 519.685 59.42 519.072 59.5C518.965 59.5133 518.632 59.5667 518.072 59.66L517.752 59.72V66H514.272V56ZM522.045 56H525.525V66H522.045V56ZM522.065 52.02H525.545V55.36H522.065V52.02ZM530.368 66.26C529.262 66.26 528.435 65.98 527.888 65.42C527.355 64.8467 527.088 63.98 527.088 62.82C527.088 61.7133 527.382 60.94 527.968 60.5C528.568 60.0467 529.535 59.7867 530.868 59.72L532.348 59.64V59.18C532.348 58.9533 532.288 58.8133 532.168 58.76C532.062 58.6933 531.828 58.66 531.468 58.66L529.668 58.7C528.522 58.7533 527.908 58.7667 527.828 58.74L527.748 56.4C529.188 55.96 530.588 55.74 531.948 55.74C533.322 55.74 534.308 56.0133 534.908 56.56C535.508 57.0933 535.808 57.9667 535.808 59.18V62.7C535.822 62.8467 535.835 63.0133 535.848 63.2C535.862 63.3733 535.888 63.4933 535.928 63.56C535.968 63.6133 536.042 63.6533 536.148 63.68L536.048 66.26C535.222 66.26 534.602 66.22 534.188 66.14C533.788 66.0733 533.348 65.9067 532.868 65.64C532.042 66.0533 531.208 66.26 530.368 66.26ZM531.168 63.48C531.382 63.48 531.708 63.4467 532.148 63.38L532.348 63.36V61.98L531.288 62.06C531.062 62.0867 530.882 62.1667 530.748 62.3C530.615 62.4333 530.548 62.62 530.548 62.86C530.548 63.2733 530.755 63.48 531.168 63.48Z" fill="black"/>
<path d="M112.862 29.075V33H106.037V15.8H110.337V29.075H112.862ZM120.879 20.5V33H112.854V29.075H116.579V20.5H120.879ZM115.179 35H118.204V38.8H115.179V35ZM119.429 35H122.454V38.8H119.429V35ZM136.251 33H131.476C131.426 34.9 131.051 36.4 130.351 37.5C129.651 38.6167 128.618 39.175 127.251 39.175C126.885 39.175 126.285 39.15 125.451 39.1V35.225L125.826 35.25C126.726 35.25 127.176 34.5667 127.176 33.2V20.475H131.476V29.075H136.251V33ZM148.043 29.075V33H136.243V29.075H139.968V20.5H144.268V29.075H148.043ZM138.443 35H141.468V38.8H138.443V35ZM142.693 35H145.718V38.8H142.693V35ZM163.76 29.075V33H148.035V29.075H157.06V25.75C157.06 25.0833 156.952 24.6 156.735 24.3C156.518 24 156.068 23.85 155.385 23.85C155.118 23.8667 154.593 23.875 153.81 23.875H151.385H150.01L149.91 21.1C150.76 20.85 151.843 20.65 153.16 20.5C154.477 20.3333 155.618 20.25 156.585 20.25C157.835 20.25 158.802 20.4083 159.485 20.725C160.185 21.0417 160.668 21.4917 160.935 22.075C161.202 22.6417 161.343 23.375 161.36 24.275V29.075H163.76ZM154.035 35H157.91V39.025H154.035V35ZM175.558 29.075V33H163.758V29.075H167.483V20.5H171.783V29.075H175.558ZM165.958 35H168.983V38.8H165.958V35ZM170.208 35H173.233V38.8H170.208V35ZM183.575 20.5V33H175.55V29.075H179.275V20.5H183.575ZM179.575 14.15H183.45V18.175H179.575V14.15ZM215.488 33H212.838C212.738 35.2667 212.146 36.8667 211.063 37.8C209.979 38.7333 208.538 39.2 206.738 39.2H199.513C198.396 39.2 197.229 38.9833 196.013 38.55C194.796 38.1333 193.763 37.45 192.913 36.5C192.063 35.55 191.638 34.325 191.638 32.825C191.638 32.175 191.713 31.375 191.863 30.425C192.029 29.475 192.188 28.725 192.338 28.175L196.313 28.825C196.246 29.3083 196.163 29.9333 196.063 30.7C195.979 31.45 195.938 31.975 195.938 32.275C195.938 33.0917 196.238 33.7917 196.838 34.375C197.454 34.975 198.304 35.275 199.388 35.275L206.488 35.25C206.971 35.25 207.338 35.2083 207.588 35.125C207.838 35.0583 208.038 34.8583 208.188 34.525C208.338 34.2083 208.421 33.7 208.438 33C207.621 32.9833 206.904 32.875 206.288 32.675C205.671 32.475 204.996 32.1083 204.263 31.575L206.163 28.175C206.529 28.475 206.854 28.6917 207.138 28.825C207.421 28.9583 207.671 29.0333 207.888 29.05C208.121 29.0667 208.496 29.075 209.013 29.075H215.488V33ZM199.013 41H202.038V44.8H199.013V41ZM203.263 41H206.288V44.8H203.263V41ZM214.661 29.075H217.661C217.694 29.1083 217.661 28.8 217.561 28.15C217.461 27.4833 217.411 26.7917 217.411 26.075C217.411 24.625 217.686 23.5 218.236 22.7C218.786 21.9 219.594 21.3417 220.661 21.025C221.744 20.7083 223.153 20.55 224.886 20.55C226.486 20.55 227.678 20.6 228.461 20.7L230.161 20.9V33H214.661V29.075ZM225.861 29.075V24.425C225.161 24.3917 224.719 24.375 224.536 24.375C223.719 24.375 223.128 24.4333 222.761 24.55C222.411 24.6667 222.161 24.9167 222.011 25.3C221.878 25.6667 221.811 26.2833 221.811 27.15C221.811 27.8333 221.836 28.3 221.886 28.55C221.936 28.7833 221.969 28.9583 221.986 29.075H225.861ZM222.111 14.15H225.986V18.175H222.111V14.15ZM254.302 29.075V33H245.127C243.344 33 241.952 32.85 240.952 32.55C239.952 32.25 239.194 31.6333 238.677 30.7C238.161 29.75 237.902 28.325 237.902 26.425C237.902 24.6583 238.144 23.3417 238.627 22.475C239.111 21.5917 239.877 21 240.927 20.7C241.977 20.4 243.502 20.25 245.502 20.25C246.619 20.25 247.844 20.2917 249.177 20.375C250.511 20.4417 251.402 20.5167 251.852 20.6V29.075H254.302ZM242.202 26.45C242.202 27.25 242.311 27.8417 242.527 28.225C242.761 28.5917 243.077 28.825 243.477 28.925C243.877 29.025 244.452 29.075 245.202 29.075H247.552V24.25C246.502 24.2 245.802 24.175 245.452 24.175C244.569 24.175 243.911 24.225 243.477 24.325C243.044 24.4083 242.719 24.6167 242.502 24.95C242.302 25.2667 242.202 25.7667 242.202 26.45ZM241.852 14.375H244.877V18.175H241.852V14.375ZM246.102 14.375H249.127V18.175H246.102V14.375ZM268.31 29.075V33H254.31V29.075H257.085C256.885 28.1583 256.785 27.3167 256.785 26.55C256.785 24.8333 257.176 23.5083 257.96 22.575C258.743 21.625 259.618 20.9917 260.585 20.675C261.568 20.3417 262.451 20.175 263.235 20.175C263.835 20.175 264.551 20.2667 265.385 20.45C266.235 20.6333 266.96 20.8583 267.56 21.125L267.36 25.25C265.71 24.4833 264.435 24.1 263.535 24.1C261.901 24.1 261.085 24.9667 261.085 26.7C261.085 27.6167 261.376 28.4083 261.96 29.075H268.31ZM277.706 29.075V33H270.881V15.8H275.181V29.075H277.706ZM296.873 29.075V33H295.123C294.923 33 294.74 32.9417 294.573 32.825C294.407 32.6917 294.282 32.5167 294.198 32.3V33H277.698V29.075H281.423C281.207 28.1417 281.098 27.35 281.098 26.7C281.098 25.9167 281.207 25.0083 281.423 23.975C281.657 22.9417 281.907 22.025 282.173 21.225C282.64 20.9917 283.357 20.7833 284.323 20.6C285.29 20.4 286.39 20.3 287.623 20.3C289.607 20.3 291.073 20.575 292.023 21.125C292.973 21.675 293.573 22.3833 293.823 23.25C294.073 24.1167 294.198 25.2833 294.198 26.75V28.075C294.298 28.375 294.432 28.6167 294.598 28.8C294.782 28.9833 294.957 29.075 295.123 29.075H296.873ZM285.223 26.7C285.223 27.1167 285.257 27.5417 285.323 27.975C285.407 28.4083 285.49 28.775 285.573 29.075H289.898V26.65C289.898 26.0667 289.857 25.6167 289.773 25.3C289.707 24.9833 289.482 24.7167 289.098 24.5C288.715 24.2667 288.107 24.15 287.273 24.15C286.64 24.15 286.04 24.2167 285.473 24.35C285.307 25.2667 285.223 26.05 285.223 26.7ZM312.588 29.075V33H296.863V29.075H305.888V25.75C305.888 25.0833 305.78 24.6 305.563 24.3C305.347 24 304.897 23.85 304.213 23.85C303.947 23.8667 303.422 23.875 302.638 23.875H300.213H298.838L298.738 21.1C299.588 20.85 300.672 20.65 301.988 20.5C303.305 20.3333 304.447 20.25 305.413 20.25C306.663 20.25 307.63 20.4083 308.313 20.725C309.013 21.0417 309.497 21.4917 309.763 22.075C310.03 22.6417 310.172 23.375 310.188 24.275V29.075H312.588ZM302.863 35H306.738V39.025H302.863V35ZM319.961 15.8V33H312.586V29.075H315.661V15.8H319.961ZM323.615 15.8H327.915V33H323.615V15.8ZM343.689 30.375C343.689 31.6083 343.606 32.8083 343.439 33.975C343.289 35.1417 342.781 36.3 341.914 37.45C341.064 38.6167 339.706 39.2 337.839 39.2C336.756 39.2 335.172 39.0167 333.089 38.65V34.75C335.372 35.1 336.814 35.275 337.414 35.275C338.147 35.275 338.639 35.1 338.889 34.75C339.139 34.4 339.256 33.8167 339.239 33H336.839C335.239 33 334.022 32.6917 333.189 32.075C332.372 31.4583 331.839 30.725 331.589 29.875C331.339 29.0083 331.214 28.0417 331.214 26.975C331.214 24.9583 331.481 23.4417 332.014 22.425C332.564 21.4083 333.256 20.75 334.089 20.45C334.939 20.1333 335.972 19.975 337.189 19.975C338.356 19.975 339.522 20.05 340.689 20.2C341.856 20.35 342.856 20.5167 343.689 20.7V30.375ZM335.514 26.7C335.514 27.4833 335.672 28.075 335.989 28.475C336.322 28.875 336.956 29.075 337.889 29.075H339.389V23.95C338.856 23.9167 338.364 23.9 337.914 23.9C337.481 23.9 337.097 23.95 336.764 24.05C336.431 24.15 336.139 24.4083 335.889 24.825C335.639 25.225 335.514 25.85 335.514 26.7ZM367.657 29.075V33H358.482C356.699 33 355.307 32.85 354.307 32.55C353.307 32.25 352.549 31.6333 352.032 30.7C351.515 29.75 351.257 28.325 351.257 26.425C351.257 24.6583 351.499 23.3417 351.982 22.475C352.465 21.5917 353.232 21 354.282 20.7C355.332 20.4 356.857 20.25 358.857 20.25C359.974 20.25 361.199 20.2917 362.532 20.375C363.865 20.4417 364.757 20.5167 365.207 20.6V29.075H367.657ZM355.557 26.45C355.557 27.25 355.665 27.8417 355.882 28.225C356.115 28.5917 356.432 28.825 356.832 28.925C357.232 29.025 357.807 29.075 358.557 29.075H360.907V24.25C359.857 24.2 359.157 24.175 358.807 24.175C357.924 24.175 357.265 24.225 356.832 24.325C356.399 24.4083 356.074 24.6167 355.857 24.95C355.657 25.2667 355.557 25.7667 355.557 26.45ZM355.207 14.375H358.232V18.175H355.207V14.375ZM359.457 14.375H362.482V18.175H359.457V14.375ZM379.464 29.075V33H367.664V29.075H371.389V20.5H375.689V29.075H379.464ZM371.564 14.15H375.439V18.175H371.564V14.15ZM402.081 29.075V33H394.656C394.056 33 393.473 32.9 392.906 32.7C392.356 32.5 391.973 32.325 391.756 32.175C391.023 32.725 390.173 33 389.206 33H379.456V29.075H383.131V21.75H387.431V29.075H387.706C388.256 29.075 388.698 28.875 389.031 28.475C389.364 28.075 389.531 27.5333 389.531 26.85V21.75H393.831V26.85C393.831 27.5167 393.764 28.1833 393.631 28.85C393.864 29 394.139 29.075 394.456 29.075H395.831V26.975L395.856 25.625C395.873 25.375 395.881 24.9917 395.881 24.475C395.881 23.5917 395.814 22.3083 395.681 20.625L399.506 20.45C399.923 23.5667 400.131 25.4333 400.131 26.05V29.075H402.081ZM409.463 15.8V33H402.088V29.075H405.163V15.8H409.463ZM413.117 15.8H417.417V33H413.117V15.8ZM444.534 33H441.584C441.568 34.0333 441.268 35.025 440.684 35.975C440.118 36.925 439.268 37.7 438.134 38.3C437.018 38.9 435.676 39.2 434.109 39.2C432.576 39.2 431.209 38.9083 430.009 38.325C428.826 37.7583 427.909 36.9917 427.259 36.025C426.609 35.0583 426.284 34.0167 426.284 32.9C426.284 31.9667 426.559 29.7 427.109 26.1L431.134 26.325C430.984 27.3417 430.826 28.5083 430.659 29.825C430.493 31.1417 430.409 32 430.409 32.4C430.409 32.8833 430.551 33.3417 430.834 33.775C431.134 34.225 431.551 34.5833 432.084 34.85C432.634 35.1333 433.251 35.275 433.934 35.275C434.668 35.275 435.284 35.125 435.784 34.825C436.301 34.5417 436.676 34.1833 436.909 33.75C437.159 33.3167 437.284 32.8917 437.284 32.475V15.8H441.584V29.075H444.534V33ZM455.094 16.725C457.227 16.725 458.952 17.1833 460.269 18.1C461.602 19 462.552 20.1667 463.119 21.6C463.702 23.0167 463.994 24.55 463.994 26.2V33H444.544V29.075H447.019V28.675C447.002 27.7583 447.227 26.8667 447.694 26C448.177 25.1167 448.844 24.4 449.694 23.85C450.561 23.3 451.552 23.025 452.669 23.025C453.786 23.025 454.761 23.3083 455.594 23.875C456.444 24.425 457.094 25.1333 457.544 26C458.011 26.85 458.244 27.725 458.244 28.625V29.075H459.694V26.2C459.694 24.7 459.377 23.5417 458.744 22.725C458.111 21.9083 457.369 21.3583 456.519 21.075C455.686 20.7917 454.877 20.65 454.094 20.65C453.494 20.65 452.786 20.7083 451.969 20.825C451.169 20.925 450.011 21.1 448.494 21.35C448.361 21.3833 448.177 21.4167 447.944 21.45L447.569 17.925C449.152 17.5417 450.552 17.25 451.769 17.05C452.986 16.8333 454.094 16.725 455.094 16.725ZM452.619 26.925C452.252 26.925 451.944 27.1 451.694 27.45C451.461 27.7833 451.344 28.2 451.344 28.7V29.075H453.944V28.675C453.944 28.1917 453.811 27.7833 453.544 27.45C453.294 27.1 452.986 26.925 452.619 26.925ZM466.926 17.95H471.226V33H466.926V17.95ZM471.976 15.175L466.251 16.3L465.951 14.875L467.051 14.6C466.351 14 466.001 13.2667 466.001 12.4C466.001 11.6667 466.259 11.0333 466.776 10.5C467.309 9.96667 467.992 9.7 468.826 9.7C469.459 9.7 470.134 9.9 470.851 10.3L470.476 12.175C470.192 11.9417 469.867 11.825 469.501 11.825C469.151 11.825 468.867 11.9417 468.651 12.175C468.434 12.4083 468.326 12.6833 468.326 13C468.326 13.5 468.534 13.8667 468.951 14.1L471.576 13.4L471.976 15.175ZM490.768 33H485.993C485.943 34.9 485.568 36.4 484.868 37.5C484.168 38.6167 483.134 39.175 481.768 39.175C481.401 39.175 480.801 39.15 479.968 39.1V35.225L480.343 35.25C481.243 35.25 481.693 34.5667 481.693 33.2V20.475H485.993V29.075H490.768V33ZM481.918 14.15H485.793V18.175H481.918V14.15ZM500.785 20C502.351 20 503.526 20.4333 504.31 21.3C505.093 22.1667 505.585 23.0667 505.785 24C506.001 24.9333 506.11 25.725 506.11 26.375V33H490.76V29.075H501.81V26.35C501.81 25.7833 501.701 25.3167 501.485 24.95C501.285 24.5833 501.035 24.3167 500.735 24.15C500.451 23.9833 500.201 23.9083 499.985 23.925H493.335L491.31 21.2L492.935 18.025C493.285 17.3083 493.726 16.6 494.26 15.9C494.81 15.2 495.293 14.65 495.71 14.25L498.935 16.075C498.801 16.225 498.493 16.6917 498.01 17.475C497.526 18.2417 497.085 19.0083 496.685 19.775L496.56 20H500.785ZM519.405 33H514.63C514.58 34.9 514.205 36.4 513.505 37.5C512.805 38.6167 511.772 39.175 510.405 39.175C510.039 39.175 509.439 39.15 508.605 39.1V35.225L508.98 35.25C509.88 35.25 510.33 34.5667 510.33 33.2V20.475H514.63V29.075H519.405V33ZM529.322 20.3C531.306 20.3 532.772 20.575 533.722 21.125C534.672 21.675 535.272 22.3833 535.522 23.25C535.772 24.1167 535.897 25.2833 535.897 26.75V33H519.397V29.075H523.122C522.906 28.1417 522.797 27.35 522.797 26.7C522.797 25.9167 522.906 25.0083 523.122 23.975C523.356 22.9417 523.606 22.025 523.872 21.225C524.339 20.9917 525.056 20.7833 526.022 20.6C526.989 20.4 528.089 20.3 529.322 20.3ZM526.922 26.7C526.922 27.1167 526.956 27.5417 527.022 27.975C527.106 28.4083 527.189 28.775 527.272 29.075H531.597V26.65C531.597 26.0667 531.556 25.6167 531.472 25.3C531.406 24.9833 531.181 24.7167 530.797 24.5C530.414 24.2667 529.806 24.15 528.972 24.15C528.339 24.15 527.739 24.2167 527.172 24.35C527.006 25.2667 526.922 26.05 526.922 26.7Z" fill="#00FF6A"/>
</svg>
