<svg width="431" height="62" viewBox="0 0 431 62" fill="none" xmlns="http://www.w3.org/2000/svg">
<path d="M11.399 57.26C9.94502 57.26 8.82502 57.0133 8.03902 56.52C7.26502 56.0267 6.73203 55.2933 6.43903 54.32C6.14503 53.3333 5.99902 52.02 5.99902 50.38C5.99902 48.46 6.16502 46.9933 6.49902 45.98C6.84502 44.9667 7.37902 44.2667 8.09902 43.88C8.81902 43.4933 9.81902 43.3 11.099 43.3C12.405 43.3 13.832 43.5 15.379 43.9L15.279 46.7C14.025 46.5267 13.012 46.44 12.239 46.44C11.532 46.44 10.992 46.5533 10.619 46.78C10.245 46.9933 9.98502 47.34 9.83902 47.82C9.70502 48.2867 9.63902 48.9533 9.63902 49.82C9.63902 50.26 9.64502 50.6 9.65902 50.84C9.69902 51.8267 9.77902 52.54 9.89902 52.98C10.019 53.42 10.232 53.72 10.539 53.88C10.845 54.04 11.339 54.12 12.019 54.12C12.939 54.12 14.025 54.0467 15.279 53.9L15.339 56.78C13.899 57.1 12.585 57.26 11.399 57.26ZM21.081 57.26C19.481 57.26 18.315 56.8667 17.581 56.08C16.861 55.2933 16.501 54.0067 16.501 52.22C16.501 50.3933 16.881 49.0267 17.641 48.12C18.415 47.2 19.588 46.74 21.161 46.74C22.615 46.74 23.728 47.1133 24.501 47.86C25.288 48.6067 25.681 49.7 25.681 51.14L25.401 53.48H20.001C20.041 53.72 20.115 53.8933 20.221 54C20.341 54.1067 20.501 54.1733 20.701 54.2C20.901 54.2133 21.241 54.22 21.721 54.22C22.201 54.22 22.768 54.2067 23.421 54.18C24.088 54.1533 24.541 54.1267 24.781 54.1L25.321 54.04L25.361 56.54C23.881 57.02 22.455 57.26 21.081 57.26ZM22.281 50.88C22.281 50.36 22.201 50.0133 22.041 49.84C21.881 49.6533 21.575 49.56 21.121 49.56C20.668 49.56 20.368 49.6533 20.221 49.84C20.075 50.0133 19.995 50.36 19.981 50.88H22.281ZM27.295 47H30.755V47.46C31.182 47.1933 31.562 47.0067 31.895 46.9C32.229 46.7933 32.589 46.74 32.975 46.74C34.202 46.74 35.089 47.1533 35.635 47.98C36.182 48.7933 36.455 49.96 36.455 51.48V57H32.975V51.6C32.975 50.9867 32.882 50.54 32.695 50.26C32.522 49.98 32.195 49.84 31.715 49.84C31.689 49.84 31.615 49.84 31.495 49.84C31.375 49.84 31.182 49.8733 30.915 49.94H30.775V57H27.295V47ZM42.183 57.26C41.357 57.26 40.71 57.1333 40.243 56.88C39.777 56.6133 39.443 56.2 39.243 55.64C39.043 55.08 38.943 54.32 38.943 53.36V49.94H37.923V47H38.943V44.4H42.423V47H44.403V49.94H42.423V53.58C42.423 53.98 42.57 54.1667 42.863 54.14L44.223 54.16L44.343 56.9C43.77 57.0467 43.343 57.14 43.063 57.18C42.797 57.2333 42.503 57.26 42.183 57.26ZM46.084 47H49.544V47.86C50.704 47.26 51.664 46.8867 52.424 46.74V50.24C52.011 50.3333 51.498 50.42 50.884 50.5C50.778 50.5133 50.444 50.5667 49.884 50.66L49.564 50.72V57H46.084V47ZM58.035 57.26C56.435 57.26 55.268 56.8667 54.535 56.08C53.815 55.2933 53.455 54.0067 53.455 52.22C53.455 50.3933 53.835 49.0267 54.595 48.12C55.368 47.2 56.541 46.74 58.115 46.74C59.568 46.74 60.681 47.1133 61.455 47.86C62.241 48.6067 62.635 49.7 62.635 51.14L62.355 53.48H56.955C56.995 53.72 57.068 53.8933 57.175 54C57.295 54.1067 57.455 54.1733 57.655 54.2C57.855 54.2133 58.195 54.22 58.675 54.22C59.155 54.22 59.721 54.2067 60.375 54.18C61.041 54.1533 61.495 54.1267 61.735 54.1L62.275 54.04L62.315 56.54C60.835 57.02 59.408 57.26 58.035 57.26ZM59.235 50.88C59.235 50.36 59.155 50.0133 58.995 49.84C58.835 49.6533 58.528 49.56 58.075 49.56C57.621 49.56 57.321 49.6533 57.175 49.84C57.028 50.0133 56.948 50.36 56.935 50.88H59.235ZM69.163 49.94H68.203V47H69.163V46.86C69.163 45.8733 69.256 45.1 69.443 44.54C69.643 43.98 69.963 43.58 70.403 43.34C70.843 43.1 71.456 42.98 72.243 42.98L74.683 43.18L74.643 46.12C73.95 46.0533 73.45 46.02 73.143 46.02C72.996 46.02 72.876 46.1267 72.783 46.34C72.69 46.5533 72.643 46.7333 72.643 46.88V47H74.743V49.94H72.643V57H69.163V49.94ZM80.344 57.26C79.384 57.26 78.537 57.0333 77.804 56.58C77.084 56.1267 76.524 55.4933 76.124 54.68C75.737 53.8667 75.544 52.9467 75.544 51.92C75.544 50.92 75.737 50.0333 76.124 49.26C76.511 48.4733 77.064 47.86 77.784 47.42C78.504 46.9667 79.357 46.74 80.344 46.74C81.331 46.74 82.184 46.96 82.904 47.4C83.637 47.84 84.197 48.4533 84.584 49.24C84.971 50.0133 85.164 50.9067 85.164 51.92C85.164 52.96 84.964 53.8867 84.564 54.7C84.177 55.5 83.617 56.1267 82.884 56.58C82.151 57.0333 81.304 57.26 80.344 57.26ZM80.344 54.34C80.691 54.34 80.997 54.14 81.264 53.74C81.531 53.3267 81.664 52.72 81.664 51.92C81.664 51.1867 81.537 50.6267 81.284 50.24C81.031 49.8533 80.717 49.66 80.344 49.66C79.971 49.66 79.657 49.8533 79.404 50.24C79.164 50.6267 79.044 51.1867 79.044 51.92C79.044 52.72 79.171 53.3267 79.424 53.74C79.691 54.14 79.997 54.34 80.344 54.34ZM86.807 47H90.267V47.86C91.427 47.26 92.387 46.8867 93.147 46.74V50.24C92.734 50.3333 92.22 50.42 91.607 50.5C91.5 50.5133 91.167 50.5667 90.607 50.66L90.287 50.72V57H86.807V47ZM105.895 55.28H101.975L101.715 57H98.115L100.695 43.56H107.175L109.755 57H106.155L105.895 55.28ZM104.375 46.48H103.495L102.575 52.2H105.295L104.375 46.48ZM111.104 43.24H114.584V47.42C115.024 47.1667 115.404 46.9933 115.724 46.9C116.044 46.7933 116.417 46.74 116.844 46.74C118.044 46.74 118.911 47.1467 119.444 47.96C119.991 48.7733 120.264 49.9467 120.264 51.48V57H116.804V51.56C116.804 51 116.717 50.5733 116.544 50.28C116.384 49.9867 116.091 49.84 115.664 49.84C115.371 49.84 115.071 49.8733 114.764 49.94L114.584 49.98V57H111.104V43.24ZM122.513 43.24H125.993V57H122.513V43.24ZM131.631 57.26C130.364 57.26 129.478 56.86 128.971 56.06C128.464 55.2467 128.211 53.98 128.211 52.26V47H131.691V52.34C131.691 52.8867 131.711 53.28 131.751 53.52C131.791 53.7467 131.884 53.9133 132.031 54.02C132.178 54.1133 132.418 54.16 132.751 54.16C133.031 54.16 133.444 54.1267 133.991 54.06V47H137.451V57H134.031V56.54C133.458 56.8333 132.998 57.0267 132.651 57.12C132.318 57.2133 131.978 57.26 131.631 57.26ZM148.393 57.28C147.246 57.28 145.939 57.0867 144.473 56.7L143.753 56.54L144.113 53.82C145.873 54.06 147.233 54.18 148.193 54.18C149.233 54.18 149.753 53.82 149.753 53.1C149.753 52.8467 149.633 52.6467 149.393 52.5C149.166 52.3533 148.826 52.1933 148.373 52.02C148.079 51.9133 147.866 51.8267 147.733 51.76C146.226 51.2533 145.153 50.6733 144.513 50.02C143.886 49.3667 143.573 48.5467 143.573 47.56C143.573 46.16 143.999 45.1 144.853 44.38C145.706 43.66 146.866 43.3 148.333 43.3C148.933 43.3 149.499 43.34 150.033 43.42C150.579 43.5 151.573 43.6733 153.013 43.94L152.733 46.7C150.999 46.5 149.666 46.4 148.733 46.4C147.639 46.4 147.093 46.7 147.093 47.3C147.093 47.5 147.226 47.6733 147.493 47.82C147.759 47.9533 148.179 48.1267 148.753 48.34C149.339 48.5533 149.719 48.7 149.893 48.78C150.773 49.14 151.453 49.4933 151.933 49.84C152.413 50.1733 152.759 50.58 152.973 51.06C153.186 51.54 153.293 52.1467 153.293 52.88C153.293 53.8133 153.073 54.6133 152.633 55.28C152.206 55.9333 151.619 56.4333 150.873 56.78C150.139 57.1133 149.313 57.28 148.393 57.28ZM158.291 57.26C157.024 57.26 156.138 56.86 155.631 56.06C155.124 55.2467 154.871 53.98 154.871 52.26V47H158.351V52.34C158.351 52.8867 158.371 53.28 158.411 53.52C158.451 53.7467 158.544 53.9133 158.691 54.02C158.838 54.1133 159.078 54.16 159.411 54.16C159.691 54.16 160.104 54.1267 160.651 54.06V47H164.111V57H160.691V56.54C160.118 56.8333 159.658 57.0267 159.311 57.12C158.978 57.2133 158.638 57.26 158.291 57.26ZM166.338 47H169.798V47.46C170.225 47.1933 170.605 47.0067 170.938 46.9C171.272 46.7933 171.632 46.74 172.018 46.74C173.245 46.74 174.132 47.1533 174.678 47.98C175.225 48.7933 175.498 49.96 175.498 51.48V57H172.018V51.6C172.018 50.9867 171.925 50.54 171.738 50.26C171.565 49.98 171.238 49.84 170.758 49.84C170.732 49.84 170.658 49.84 170.538 49.84C170.418 49.84 170.225 49.8733 169.958 49.94H169.818V57H166.338V47ZM177.627 47H181.087V47.46C181.514 47.1933 181.894 47.0067 182.227 46.9C182.561 46.7933 182.921 46.74 183.307 46.74C184.534 46.74 185.421 47.1533 185.967 47.98C186.514 48.7933 186.787 49.96 186.787 51.48V57H183.307V51.6C183.307 50.9867 183.214 50.54 183.027 50.26C182.854 49.98 182.527 49.84 182.047 49.84C182.021 49.84 181.947 49.84 181.827 49.84C181.707 49.84 181.514 49.8733 181.247 49.94H181.107V57H177.627V47ZM191.536 57.26C190.43 57.26 189.603 56.98 189.056 56.42C188.523 55.8467 188.256 54.98 188.256 53.82C188.256 52.7133 188.55 51.94 189.136 51.5C189.736 51.0467 190.703 50.7867 192.036 50.72L193.516 50.64V50.18C193.516 49.9533 193.456 49.8133 193.336 49.76C193.23 49.6933 192.996 49.66 192.636 49.66L190.836 49.7C189.69 49.7533 189.076 49.7667 188.996 49.74L188.916 47.4C190.356 46.96 191.756 46.74 193.116 46.74C194.49 46.74 195.476 47.0133 196.076 47.56C196.676 48.0933 196.976 48.9667 196.976 50.18V53.7C196.99 53.8467 197.003 54.0133 197.016 54.2C197.03 54.3733 197.056 54.4933 197.096 54.56C197.136 54.6133 197.21 54.6533 197.316 54.68L197.216 57.26C196.39 57.26 195.77 57.22 195.356 57.14C194.956 57.0733 194.516 56.9067 194.036 56.64C193.21 57.0533 192.376 57.26 191.536 57.26ZM192.336 54.48C192.55 54.48 192.876 54.4467 193.316 54.38L193.516 54.36V52.98L192.456 53.06C192.23 53.0867 192.05 53.1667 191.916 53.3C191.783 53.4333 191.716 53.62 191.716 53.86C191.716 54.2733 191.923 54.48 192.336 54.48ZM199.268 43.24H202.748V47.42C203.188 47.1667 203.568 46.9933 203.888 46.9C204.208 46.7933 204.581 46.74 205.008 46.74C206.208 46.74 207.075 47.1467 207.608 47.96C208.155 48.7733 208.428 49.9467 208.428 51.48V57H204.968V51.56C204.968 51 204.881 50.5733 204.708 50.28C204.548 49.9867 204.255 49.84 203.828 49.84C203.535 49.84 203.235 49.8733 202.928 49.94L202.748 49.98V57H199.268V43.24ZM214.092 43.56H217.852L219.072 53.98H219.192L221.372 43.48H225.512L227.692 53.98H227.812L229.032 43.56H232.812L230.352 57H225.272L223.452 47.64L221.632 57H216.532L214.092 43.56ZM236.458 57.26C235.352 57.26 234.525 56.98 233.978 56.42C233.445 55.8467 233.178 54.98 233.178 53.82C233.178 52.7133 233.472 51.94 234.058 51.5C234.658 51.0467 235.625 50.7867 236.958 50.72L238.438 50.64V50.18C238.438 49.9533 238.378 49.8133 238.258 49.76C238.152 49.6933 237.918 49.66 237.558 49.66L235.758 49.7C234.612 49.7533 233.998 49.7667 233.918 49.74L233.838 47.4C235.278 46.96 236.678 46.74 238.038 46.74C239.412 46.74 240.398 47.0133 240.998 47.56C241.598 48.0933 241.898 48.9667 241.898 50.18V53.7C241.912 53.8467 241.925 54.0133 241.938 54.2C241.952 54.3733 241.978 54.4933 242.018 54.56C242.058 54.6133 242.132 54.6533 242.238 54.68L242.138 57.26C241.312 57.26 240.692 57.22 240.278 57.14C239.878 57.0733 239.438 56.9067 238.958 56.64C238.132 57.0533 237.298 57.26 236.458 57.26ZM237.258 54.48C237.472 54.48 237.798 54.4467 238.238 54.38L238.438 54.36V52.98L237.378 53.06C237.152 53.0867 236.972 53.1667 236.838 53.3C236.705 53.4333 236.638 53.62 236.638 53.86C236.638 54.2733 236.845 54.48 237.258 54.48ZM244.31 43.24H247.79V57H244.31V43.24ZM253.802 55.3C254.056 55.3 254.289 55.2133 254.502 55.04C254.716 54.8533 254.822 54.6333 254.822 54.38V43.56H258.382L258.402 54.44C258.402 55.3733 258.262 56.1267 257.982 56.7C257.716 57.26 257.249 57.68 256.582 57.96C255.916 58.24 254.989 58.38 253.802 58.38V55.3ZM263.333 57.26C262.227 57.26 261.4 56.98 260.853 56.42C260.32 55.8467 260.053 54.98 260.053 53.82C260.053 52.7133 260.347 51.94 260.933 51.5C261.533 51.0467 262.5 50.7867 263.833 50.72L265.313 50.64V50.18C265.313 49.9533 265.253 49.8133 265.133 49.76C265.027 49.6933 264.793 49.66 264.433 49.66L262.633 49.7C261.487 49.7533 260.873 49.7667 260.793 49.74L260.713 47.4C262.153 46.96 263.553 46.74 264.913 46.74C266.287 46.74 267.273 47.0133 267.873 47.56C268.473 48.0933 268.773 48.9667 268.773 50.18V53.7C268.787 53.8467 268.8 54.0133 268.813 54.2C268.827 54.3733 268.853 54.4933 268.893 54.56C268.933 54.6133 269.007 54.6533 269.113 54.68L269.013 57.26C268.187 57.26 267.567 57.22 267.153 57.14C266.753 57.0733 266.313 56.9067 265.833 56.64C265.007 57.0533 264.173 57.26 263.333 57.26ZM264.133 54.48C264.347 54.48 264.673 54.4467 265.113 54.38L265.313 54.36V52.98L264.253 53.06C264.027 53.0867 263.847 53.1667 263.713 53.3C263.58 53.4333 263.513 53.62 263.513 53.86C263.513 54.2733 263.72 54.48 264.133 54.48ZM271.065 47H274.525V47.46C275.005 47.1933 275.385 47.0067 275.665 46.9C275.958 46.7933 276.265 46.74 276.585 46.74C276.985 46.74 277.398 46.8133 277.825 46.96C278.265 47.1067 278.638 47.3267 278.945 47.62C279.638 47.2867 280.225 47.06 280.705 46.94C281.198 46.8067 281.692 46.74 282.185 46.74C283.452 46.74 284.365 47.1267 284.925 47.9C285.498 48.6733 285.785 49.8667 285.785 51.48V57H282.305V51.6C282.305 51.04 282.225 50.6067 282.065 50.3C281.918 49.9933 281.658 49.84 281.285 49.84C281.258 49.84 281.178 49.8467 281.045 49.86C280.912 49.86 280.698 49.8867 280.405 49.94L280.165 49.98L280.125 51.84V57H276.645V51.88C276.645 51.3333 276.618 50.92 276.565 50.64C276.512 50.36 276.405 50.16 276.245 50.04C276.098 49.9067 275.865 49.84 275.545 49.84C275.305 49.84 275.025 49.8733 274.705 49.94H274.545V57H271.065V47ZM287.881 47H291.341V47.46C291.821 47.1933 292.201 47.0067 292.481 46.9C292.775 46.7933 293.081 46.74 293.401 46.74C293.801 46.74 294.215 46.8133 294.641 46.96C295.081 47.1067 295.455 47.3267 295.761 47.62C296.455 47.2867 297.041 47.06 297.521 46.94C298.015 46.8067 298.508 46.74 299.001 46.74C300.268 46.74 301.181 47.1267 301.741 47.9C302.315 48.6733 302.601 49.8667 302.601 51.48V57H299.121V51.6C299.121 51.04 299.041 50.6067 298.881 50.3C298.735 49.9933 298.475 49.84 298.101 49.84C298.075 49.84 297.995 49.8467 297.861 49.86C297.728 49.86 297.515 49.8867 297.221 49.94L296.981 49.98L296.941 51.84V57H293.461V51.88C293.461 51.3333 293.435 50.92 293.381 50.64C293.328 50.36 293.221 50.16 293.061 50.04C292.915 49.9067 292.681 49.84 292.361 49.84C292.121 49.84 291.841 49.8733 291.521 49.94H291.361V57H287.881V47ZM307.318 57.26C306.211 57.26 305.384 56.98 304.838 56.42C304.304 55.8467 304.038 54.98 304.038 53.82C304.038 52.7133 304.331 51.94 304.918 51.5C305.518 51.0467 306.484 50.7867 307.818 50.72L309.298 50.64V50.18C309.298 49.9533 309.238 49.8133 309.118 49.76C309.011 49.6933 308.778 49.66 308.418 49.66L306.618 49.7C305.471 49.7533 304.858 49.7667 304.778 49.74L304.698 47.4C306.138 46.96 307.538 46.74 308.898 46.74C310.271 46.74 311.258 47.0133 311.858 47.56C312.458 48.0933 312.758 48.9667 312.758 50.18V53.7C312.771 53.8467 312.784 54.0133 312.798 54.2C312.811 54.3733 312.838 54.4933 312.878 54.56C312.918 54.6133 312.991 54.6533 313.098 54.68L312.998 57.26C312.171 57.26 311.551 57.22 311.138 57.14C310.738 57.0733 310.298 56.9067 309.818 56.64C308.991 57.0533 308.158 57.26 307.318 57.26ZM308.118 54.48C308.331 54.48 308.658 54.4467 309.098 54.38L309.298 54.36V52.98L308.238 53.06C308.011 53.0867 307.831 53.1667 307.698 53.3C307.564 53.4333 307.498 53.62 307.498 53.86C307.498 54.2733 307.704 54.48 308.118 54.48ZM314.695 43.56H317.995L317.815 48.6H314.775L314.695 43.56ZM322.63 57.26C321.523 57.26 320.697 56.98 320.15 56.42C319.617 55.8467 319.35 54.98 319.35 53.82C319.35 52.7133 319.643 51.94 320.23 51.5C320.83 51.0467 321.797 50.7867 323.13 50.72L324.61 50.64V50.18C324.61 49.9533 324.55 49.8133 324.43 49.76C324.323 49.6933 324.09 49.66 323.73 49.66L321.93 49.7C320.783 49.7533 320.17 49.7667 320.09 49.74L320.01 47.4C321.45 46.96 322.85 46.74 324.21 46.74C325.583 46.74 326.57 47.0133 327.17 47.56C327.77 48.0933 328.07 48.9667 328.07 50.18V53.7C328.083 53.8467 328.097 54.0133 328.11 54.2C328.123 54.3733 328.15 54.4933 328.19 54.56C328.23 54.6133 328.303 54.6533 328.41 54.68L328.31 57.26C327.483 57.26 326.863 57.22 326.45 57.14C326.05 57.0733 325.61 56.9067 325.13 56.64C324.303 57.0533 323.47 57.26 322.63 57.26ZM323.43 54.48C323.643 54.48 323.97 54.4467 324.41 54.38L324.61 54.36V52.98L323.55 53.06C323.323 53.0867 323.143 53.1667 323.01 53.3C322.877 53.4333 322.81 53.62 322.81 53.86C322.81 54.2733 323.017 54.48 323.43 54.48ZM330.362 43.24H333.842V47.42C334.282 47.1667 334.662 46.9933 334.982 46.9C335.302 46.7933 335.675 46.74 336.102 46.74C337.302 46.74 338.168 47.1467 338.702 47.96C339.248 48.7733 339.522 49.9467 339.522 51.48V57H336.062V51.56C336.062 51 335.975 50.5733 335.802 50.28C335.642 49.9867 335.348 49.84 334.922 49.84C334.628 49.84 334.328 49.8733 334.022 49.94L333.842 49.98V57H330.362V43.24ZM346.045 47H349.525V57H346.045V47ZM346.065 43.02H349.545V46.36H346.065V43.02ZM351.748 47H355.208V47.46C355.635 47.1933 356.015 47.0067 356.348 46.9C356.682 46.7933 357.042 46.74 357.428 46.74C358.655 46.74 359.542 47.1533 360.088 47.98C360.635 48.7933 360.908 49.96 360.908 51.48V57H357.428V51.6C357.428 50.9867 357.335 50.54 357.148 50.26C356.975 49.98 356.648 49.84 356.168 49.84C356.142 49.84 356.068 49.84 355.948 49.84C355.828 49.84 355.635 49.8733 355.368 49.94H355.228V57H351.748V47ZM379.092 43.56V57H373.392L371.232 46.74V57H367.672V43.56H373.512L375.492 53.5V43.56H379.092ZM381.514 47H384.994V57H381.514V47ZM381.534 43.02H385.014V46.36H381.534V43.02ZM391.34 61.54C389.94 61.54 388.787 61.34 387.88 60.94C386.987 60.5533 386.54 59.9067 386.54 59C386.54 58.5867 386.66 58.1667 386.9 57.74C387.14 57.3267 387.474 56.9467 387.9 56.6C387.327 56.2 387.04 55.7 387.04 55.1C387.04 54.8733 387.094 54.6533 387.2 54.44C387.307 54.2267 387.534 53.8733 387.88 53.38C387.48 52.98 387.174 52.5533 386.96 52.1C386.76 51.6333 386.66 51.1 386.66 50.5C386.66 49.2467 387.067 48.32 387.88 47.72C388.707 47.1067 389.794 46.8 391.14 46.8C391.674 46.8 392.347 46.8867 393.16 47.06L396.54 46.94V49.66L395.32 49.48C395.454 49.7867 395.534 50 395.56 50.12C395.587 50.2267 395.6 50.4067 395.6 50.66C395.6 51.8733 395.24 52.74 394.52 53.26C393.8 53.78 392.72 54.04 391.28 54.04C390.894 54.04 390.614 54.0133 390.44 53.96C390.374 54.0933 390.34 54.2733 390.34 54.5C390.34 54.6867 390.454 54.8067 390.68 54.86C390.907 54.9133 391.327 54.9533 391.94 54.98C393.06 55.02 393.947 55.1133 394.6 55.26C395.254 55.3933 395.76 55.66 396.12 56.06C396.48 56.46 396.66 57.06 396.66 57.86C396.66 59.1267 396.207 60.0533 395.3 60.64C394.407 61.24 393.087 61.54 391.34 61.54ZM391.18 51.44C391.487 51.44 391.734 51.3467 391.92 51.16C392.107 50.96 392.2 50.72 392.2 50.44C392.2 50.1467 392.107 49.9133 391.92 49.74C391.734 49.5533 391.48 49.46 391.16 49.46C390.854 49.46 390.607 49.5467 390.42 49.72C390.234 49.8933 390.14 50.1267 390.14 50.42C390.14 50.7133 390.234 50.96 390.42 51.16C390.62 51.3467 390.874 51.44 391.18 51.44ZM391.56 58.7C392.067 58.7 392.46 58.66 392.74 58.58C393.02 58.5 393.16 58.4 393.16 58.28C393.16 58.0533 392.967 57.94 392.58 57.94C392.447 57.94 392.32 57.9467 392.2 57.96C392.08 57.9733 391.967 57.98 391.86 57.98C391.78 57.98 391.72 57.9733 391.68 57.96L390.12 57.8C390.107 57.92 390.08 58.04 390.04 58.16C390 58.28 389.974 58.36 389.96 58.4C389.96 58.48 390.114 58.5467 390.42 58.6C390.727 58.6667 391.107 58.7 391.56 58.7ZM402.058 57.26C400.458 57.26 399.291 56.8667 398.558 56.08C397.838 55.2933 397.478 54.0067 397.478 52.22C397.478 50.3933 397.858 49.0267 398.618 48.12C399.391 47.2 400.565 46.74 402.138 46.74C403.591 46.74 404.705 47.1133 405.478 47.86C406.265 48.6067 406.658 49.7 406.658 51.14L406.378 53.48H400.978C401.018 53.72 401.091 53.8933 401.198 54C401.318 54.1067 401.478 54.1733 401.678 54.2C401.878 54.2133 402.218 54.22 402.698 54.22C403.178 54.22 403.745 54.2067 404.398 54.18C405.065 54.1533 405.518 54.1267 405.758 54.1L406.298 54.04L406.338 56.54C404.858 57.02 403.431 57.26 402.058 57.26ZM403.258 50.88C403.258 50.36 403.178 50.0133 403.018 49.84C402.858 49.6533 402.551 49.56 402.098 49.56C401.645 49.56 401.345 49.6533 401.198 49.84C401.051 50.0133 400.971 50.36 400.958 50.88H403.258ZM408.272 47H411.732V47.86C412.892 47.26 413.852 46.8867 414.612 46.74V50.24C414.199 50.3333 413.685 50.42 413.072 50.5C412.965 50.5133 412.632 50.5667 412.072 50.66L411.752 50.72V57H408.272V47ZM416.045 47H419.525V57H416.045V47ZM416.065 43.02H419.545V46.36H416.065V43.02ZM424.368 57.26C423.262 57.26 422.435 56.98 421.888 56.42C421.355 55.8467 421.088 54.98 421.088 53.82C421.088 52.7133 421.382 51.94 421.968 51.5C422.568 51.0467 423.535 50.7867 424.868 50.72L426.348 50.64V50.18C426.348 49.9533 426.288 49.8133 426.168 49.76C426.062 49.6933 425.828 49.66 425.468 49.66L423.668 49.7C422.522 49.7533 421.908 49.7667 421.828 49.74L421.748 47.4C423.188 46.96 424.588 46.74 425.948 46.74C427.322 46.74 428.308 47.0133 428.908 47.56C429.508 48.0933 429.808 48.9667 429.808 50.18V53.7C429.822 53.8467 429.835 54.0133 429.848 54.2C429.862 54.3733 429.888 54.4933 429.928 54.56C429.968 54.6133 430.042 54.6533 430.148 54.68L430.048 57.26C429.222 57.26 428.602 57.22 428.188 57.14C427.788 57.0733 427.348 56.9067 426.868 56.64C426.042 57.0533 425.208 57.26 424.368 57.26ZM425.168 54.48C425.382 54.48 425.708 54.4467 426.148 54.38L426.348 54.36V52.98L425.288 53.06C425.062 53.0867 424.882 53.1667 424.748 53.3C424.615 53.4333 424.548 53.62 424.548 53.86C424.548 54.2733 424.755 54.48 425.168 54.48Z" fill="black"/>
<path d="M6.86198 20.0752V24.0002H0.0369873V6.8002H4.33698V20.0752H6.86198ZM14.879 11.5002V24.0002H6.85398V20.0752H10.579V11.5002H14.879ZM9.17899 26.0002H12.204V29.8002H9.17899V26.0002ZM13.429 26.0002H16.454V29.8002H13.429V26.0002ZM30.251 24.0002H25.476C25.426 25.9002 25.051 27.4002 24.351 28.5002C23.651 29.6169 22.618 30.1752 21.251 30.1752C20.885 30.1752 20.285 30.1502 19.451 30.1002V26.2252L19.826 26.2502C20.726 26.2502 21.176 25.5669 21.176 24.2002V11.4752H25.476V20.0752H30.251V24.0002ZM42.043 20.0752V24.0002H30.243V20.0752H33.968V11.5002H38.268V20.0752H42.043ZM32.443 26.0002H35.468V29.8002H32.443V26.0002ZM36.693 26.0002H39.718V29.8002H36.693V26.0002ZM57.76 20.0752V24.0002H42.035V20.0752H51.06V16.7502C51.06 16.0835 50.952 15.6002 50.735 15.3002C50.518 15.0002 50.068 14.8502 49.385 14.8502C49.118 14.8669 48.593 14.8752 47.81 14.8752H45.385H44.01L43.91 12.1002C44.76 11.8502 45.843 11.6502 47.16 11.5002C48.477 11.3335 49.618 11.2502 50.585 11.2502C51.835 11.2502 52.802 11.4085 53.485 11.7252C54.185 12.0419 54.668 12.4919 54.935 13.0752C55.202 13.6419 55.343 14.3752 55.36 15.2752V20.0752H57.76ZM48.035 26.0002H51.91V30.0252H48.035V26.0002ZM69.558 20.0752V24.0002H57.758V20.0752H61.483V11.5002H65.783V20.0752H69.558ZM59.958 26.0002H62.983V29.8002H59.958V26.0002ZM64.208 26.0002H67.233V29.8002H64.208V26.0002ZM77.575 11.5002V24.0002H69.55V20.0752H73.275V11.5002H77.575ZM73.575 5.1502H77.45V9.17519H73.575V5.1502ZM109.488 24.0002H106.838C106.738 26.2669 106.146 27.8669 105.063 28.8002C103.979 29.7335 102.538 30.2002 100.738 30.2002H93.513C92.396 30.2002 91.229 29.9835 90.013 29.5502C88.796 29.1335 87.763 28.4502 86.913 27.5002C86.063 26.5502 85.638 25.3252 85.638 23.8252C85.638 23.1752 85.713 22.3752 85.863 21.4252C86.029 20.4752 86.188 19.7252 86.338 19.1752L90.313 19.8252C90.246 20.3085 90.163 20.9335 90.063 21.7002C89.979 22.4502 89.938 22.9752 89.938 23.2752C89.938 24.0919 90.238 24.7919 90.838 25.3752C91.454 25.9752 92.304 26.2752 93.388 26.2752L100.488 26.2502C100.971 26.2502 101.338 26.2085 101.588 26.1252C101.838 26.0585 102.038 25.8585 102.188 25.5252C102.338 25.2085 102.421 24.7002 102.438 24.0002C101.621 23.9835 100.904 23.8752 100.288 23.6752C99.671 23.4752 98.996 23.1085 98.263 22.5752L100.163 19.1752C100.529 19.4752 100.854 19.6919 101.138 19.8252C101.421 19.9585 101.671 20.0335 101.888 20.0502C102.121 20.0669 102.496 20.0752 103.013 20.0752H109.488V24.0002ZM93.013 32.0002H96.038V35.8002H93.013V32.0002ZM97.263 32.0002H100.288V35.8002H97.263V32.0002ZM108.661 20.0752H111.661C111.694 20.1085 111.661 19.8002 111.561 19.1502C111.461 18.4835 111.411 17.7919 111.411 17.0752C111.411 15.6252 111.686 14.5002 112.236 13.7002C112.786 12.9002 113.594 12.3419 114.661 12.0252C115.744 11.7085 117.153 11.5502 118.886 11.5502C120.486 11.5502 121.678 11.6002 122.461 11.7002L124.161 11.9002V24.0002H108.661V20.0752ZM119.861 20.0752V15.4252C119.161 15.3919 118.719 15.3752 118.536 15.3752C117.719 15.3752 117.128 15.4335 116.761 15.5502C116.411 15.6669 116.161 15.9169 116.011 16.3002C115.878 16.6669 115.811 17.2835 115.811 18.1502C115.811 18.8335 115.836 19.3002 115.886 19.5502C115.936 19.7835 115.969 19.9585 115.986 20.0752H119.861ZM116.111 5.1502H119.986V9.17519H116.111V5.1502ZM148.302 20.0752V24.0002H139.127C137.344 24.0002 135.952 23.8502 134.952 23.5502C133.952 23.2502 133.194 22.6335 132.677 21.7002C132.161 20.7502 131.902 19.3252 131.902 17.4252C131.902 15.6585 132.144 14.3419 132.627 13.4752C133.111 12.5919 133.877 12.0002 134.927 11.7002C135.977 11.4002 137.502 11.2502 139.502 11.2502C140.619 11.2502 141.844 11.2919 143.177 11.3752C144.511 11.4419 145.402 11.5169 145.852 11.6002V20.0752H148.302ZM136.202 17.4502C136.202 18.2502 136.311 18.8419 136.527 19.2252C136.761 19.5919 137.077 19.8252 137.477 19.9252C137.877 20.0252 138.452 20.0752 139.202 20.0752H141.552V15.2502C140.502 15.2002 139.802 15.1752 139.452 15.1752C138.569 15.1752 137.911 15.2252 137.477 15.3252C137.044 15.4085 136.719 15.6169 136.502 15.9502C136.302 16.2669 136.202 16.7669 136.202 17.4502ZM135.852 5.3752H138.877V9.17519H135.852V5.3752ZM140.102 5.3752H143.127V9.17519H140.102V5.3752ZM162.31 20.0752V24.0002H148.31V20.0752H151.085C150.885 19.1585 150.785 18.3169 150.785 17.5502C150.785 15.8335 151.176 14.5085 151.96 13.5752C152.743 12.6252 153.618 11.9919 154.585 11.6752C155.568 11.3419 156.451 11.1752 157.235 11.1752C157.835 11.1752 158.551 11.2669 159.385 11.4502C160.235 11.6335 160.96 11.8585 161.56 12.1252L161.36 16.2502C159.71 15.4835 158.435 15.1002 157.535 15.1002C155.901 15.1002 155.085 15.9669 155.085 17.7002C155.085 18.6169 155.376 19.4085 155.96 20.0752H162.31ZM171.706 20.0752V24.0002H164.881V6.8002H169.181V20.0752H171.706ZM190.873 20.0752V24.0002H189.123C188.923 24.0002 188.74 23.9419 188.573 23.8252C188.407 23.6919 188.282 23.5169 188.198 23.3002V24.0002H171.698V20.0752H175.423C175.207 19.1419 175.098 18.3502 175.098 17.7002C175.098 16.9169 175.207 16.0085 175.423 14.9752C175.657 13.9419 175.907 13.0252 176.173 12.2252C176.64 11.9919 177.357 11.7835 178.323 11.6002C179.29 11.4002 180.39 11.3002 181.623 11.3002C183.607 11.3002 185.073 11.5752 186.023 12.1252C186.973 12.6752 187.573 13.3835 187.823 14.2502C188.073 15.1169 188.198 16.2835 188.198 17.7502V19.0752C188.298 19.3752 188.432 19.6169 188.598 19.8002C188.782 19.9835 188.957 20.0752 189.123 20.0752H190.873ZM179.223 17.7002C179.223 18.1169 179.257 18.5419 179.323 18.9752C179.407 19.4085 179.49 19.7752 179.573 20.0752H183.898V17.6502C183.898 17.0669 183.857 16.6169 183.773 16.3002C183.707 15.9835 183.482 15.7169 183.098 15.5002C182.715 15.2669 182.107 15.1502 181.273 15.1502C180.64 15.1502 180.04 15.2169 179.473 15.3502C179.307 16.2669 179.223 17.0502 179.223 17.7002ZM206.588 20.0752V24.0002H190.863V20.0752H199.888V16.7502C199.888 16.0835 199.78 15.6002 199.563 15.3002C199.347 15.0002 198.897 14.8502 198.213 14.8502C197.947 14.8669 197.422 14.8752 196.638 14.8752H194.213H192.838L192.738 12.1002C193.588 11.8502 194.672 11.6502 195.988 11.5002C197.305 11.3335 198.447 11.2502 199.413 11.2502C200.663 11.2502 201.63 11.4085 202.313 11.7252C203.013 12.0419 203.497 12.4919 203.763 13.0752C204.03 13.6419 204.172 14.3752 204.188 15.2752V20.0752H206.588ZM196.863 26.0002H200.738V30.0252H196.863V26.0002ZM213.961 6.8002V24.0002H206.586V20.0752H209.661V6.8002H213.961ZM217.615 6.8002H221.915V24.0002H217.615V6.8002ZM237.689 21.3752C237.689 22.6085 237.606 23.8085 237.439 24.9752C237.289 26.1419 236.781 27.3002 235.914 28.4502C235.064 29.6169 233.706 30.2002 231.839 30.2002C230.756 30.2002 229.172 30.0169 227.089 29.6502V25.7502C229.372 26.1002 230.814 26.2752 231.414 26.2752C232.147 26.2752 232.639 26.1002 232.889 25.7502C233.139 25.4002 233.256 24.8169 233.239 24.0002H230.839C229.239 24.0002 228.022 23.6919 227.189 23.0752C226.372 22.4585 225.839 21.7252 225.589 20.8752C225.339 20.0085 225.214 19.0419 225.214 17.9752C225.214 15.9585 225.481 14.4419 226.014 13.4252C226.564 12.4085 227.256 11.7502 228.089 11.4502C228.939 11.1335 229.972 10.9752 231.189 10.9752C232.356 10.9752 233.522 11.0502 234.689 11.2002C235.856 11.3502 236.856 11.5169 237.689 11.7002V21.3752ZM229.514 17.7002C229.514 18.4835 229.672 19.0752 229.989 19.4752C230.322 19.8752 230.956 20.0752 231.889 20.0752H233.389V14.9502C232.856 14.9169 232.364 14.9002 231.914 14.9002C231.481 14.9002 231.097 14.9502 230.764 15.0502C230.431 15.1502 230.139 15.4085 229.889 15.8252C229.639 16.2252 229.514 16.8502 229.514 17.7002ZM261.657 20.0752V24.0002H252.482C250.699 24.0002 249.307 23.8502 248.307 23.5502C247.307 23.2502 246.549 22.6335 246.032 21.7002C245.515 20.7502 245.257 19.3252 245.257 17.4252C245.257 15.6585 245.499 14.3419 245.982 13.4752C246.465 12.5919 247.232 12.0002 248.282 11.7002C249.332 11.4002 250.857 11.2502 252.857 11.2502C253.974 11.2502 255.199 11.2919 256.532 11.3752C257.865 11.4419 258.757 11.5169 259.207 11.6002V20.0752H261.657ZM249.557 17.4502C249.557 18.2502 249.665 18.8419 249.882 19.2252C250.115 19.5919 250.432 19.8252 250.832 19.9252C251.232 20.0252 251.807 20.0752 252.557 20.0752H254.907V15.2502C253.857 15.2002 253.157 15.1752 252.807 15.1752C251.924 15.1752 251.265 15.2252 250.832 15.3252C250.399 15.4085 250.074 15.6169 249.857 15.9502C249.657 16.2669 249.557 16.7669 249.557 17.4502ZM249.207 5.3752H252.232V9.17519H249.207V5.3752ZM253.457 5.3752H256.482V9.17519H253.457V5.3752ZM273.464 20.0752V24.0002H261.664V20.0752H265.389V11.5002H269.689V20.0752H273.464ZM265.564 5.1502H269.439V9.17519H265.564V5.1502ZM296.081 20.0752V24.0002H288.656C288.056 24.0002 287.473 23.9002 286.906 23.7002C286.356 23.5002 285.973 23.3252 285.756 23.1752C285.023 23.7252 284.173 24.0002 283.206 24.0002H273.456V20.0752H277.131V12.7502H281.431V20.0752H281.706C282.256 20.0752 282.698 19.8752 283.031 19.4752C283.364 19.0752 283.531 18.5335 283.531 17.8502V12.7502H287.831V17.8502C287.831 18.5169 287.764 19.1835 287.631 19.8502C287.864 20.0002 288.139 20.0752 288.456 20.0752H289.831V17.9752L289.856 16.6252C289.873 16.3752 289.881 15.9919 289.881 15.4752C289.881 14.5919 289.814 13.3085 289.681 11.6252L293.506 11.4502C293.923 14.5669 294.131 16.4335 294.131 17.0502V20.0752H296.081ZM303.463 6.8002V24.0002H296.088V20.0752H299.163V6.8002H303.463ZM307.117 6.8002H311.417V24.0002H307.117V6.8002ZM338.534 24.0002H335.584C335.568 25.0335 335.268 26.0252 334.684 26.9752C334.118 27.9252 333.268 28.7002 332.134 29.3002C331.018 29.9002 329.676 30.2002 328.109 30.2002C326.576 30.2002 325.209 29.9085 324.009 29.3252C322.826 28.7585 321.909 27.9919 321.259 27.0252C320.609 26.0585 320.284 25.0169 320.284 23.9002C320.284 22.9669 320.559 20.7002 321.109 17.1002L325.134 17.3252C324.984 18.3419 324.826 19.5085 324.659 20.8252C324.493 22.1419 324.409 23.0002 324.409 23.4002C324.409 23.8835 324.551 24.3419 324.834 24.7752C325.134 25.2252 325.551 25.5835 326.084 25.8502C326.634 26.1335 327.251 26.2752 327.934 26.2752C328.668 26.2752 329.284 26.1252 329.784 25.8252C330.301 25.5419 330.676 25.1835 330.909 24.7502C331.159 24.3169 331.284 23.8919 331.284 23.4752V6.8002H335.584V20.0752H338.534V24.0002ZM349.094 7.7252C351.227 7.7252 352.952 8.1835 354.269 9.1002C355.602 10.0002 356.552 11.1669 357.119 12.6002C357.702 14.0169 357.994 15.5502 357.994 17.2002V24.0002H338.544V20.0752H341.019V19.6752C341.002 18.7585 341.227 17.8669 341.694 17.0002C342.177 16.1169 342.844 15.4002 343.694 14.8502C344.561 14.3002 345.552 14.0252 346.669 14.0252C347.786 14.0252 348.761 14.3085 349.594 14.8752C350.444 15.4252 351.094 16.1335 351.544 17.0002C352.011 17.8502 352.244 18.7252 352.244 19.6252V20.0752H353.694V17.2002C353.694 15.7002 353.377 14.5419 352.744 13.7252C352.111 12.9085 351.369 12.3585 350.519 12.0752C349.686 11.7919 348.877 11.6502 348.094 11.6502C347.494 11.6502 346.786 11.7085 345.969 11.8252C345.169 11.9252 344.011 12.1002 342.494 12.3502C342.361 12.3835 342.177 12.4169 341.944 12.4502L341.569 8.92519C343.152 8.54189 344.552 8.25019 345.769 8.05019C346.986 7.83349 348.094 7.7252 349.094 7.7252ZM346.619 17.9252C346.252 17.9252 345.944 18.1002 345.694 18.4502C345.461 18.7835 345.344 19.2002 345.344 19.7002V20.0752H347.944V19.6752C347.944 19.1919 347.811 18.7835 347.544 18.4502C347.294 18.1002 346.986 17.9252 346.619 17.9252ZM360.926 8.9502H365.226V24.0002H360.926V8.9502ZM365.976 6.1752L360.251 7.30019L359.951 5.8752L361.051 5.6002C360.351 5.0002 360.001 4.2669 360.001 3.4002C360.001 2.6669 360.259 2.0335 360.776 1.5002C361.309 0.966865 361.992 0.700195 362.826 0.700195C363.459 0.700195 364.134 0.900196 364.851 1.3002L364.476 3.1752C364.192 2.9419 363.867 2.8252 363.501 2.8252C363.151 2.8252 362.867 2.9419 362.651 3.1752C362.434 3.4085 362.326 3.6835 362.326 4.0002C362.326 4.5002 362.534 4.8669 362.951 5.1002L365.576 4.4002L365.976 6.1752ZM384.768 24.0002H379.993C379.943 25.9002 379.568 27.4002 378.868 28.5002C378.168 29.6169 377.134 30.1752 375.768 30.1752C375.401 30.1752 374.801 30.1502 373.968 30.1002V26.2252L374.343 26.2502C375.243 26.2502 375.693 25.5669 375.693 24.2002V11.4752H379.993V20.0752H384.768V24.0002ZM375.918 5.1502H379.793V9.17519H375.918V5.1502ZM394.785 11.0002C396.351 11.0002 397.526 11.4335 398.31 12.3002C399.093 13.1669 399.585 14.0669 399.785 15.0002C400.001 15.9335 400.11 16.7252 400.11 17.3752V24.0002H384.76V20.0752H395.81V17.3502C395.81 16.7835 395.701 16.3169 395.485 15.9502C395.285 15.5835 395.035 15.3169 394.735 15.1502C394.451 14.9835 394.201 14.9085 393.985 14.9252H387.335L385.31 12.2002L386.935 9.0252C387.285 8.3085 387.726 7.6002 388.26 6.9002C388.81 6.2002 389.293 5.6502 389.71 5.2502L392.935 7.0752C392.801 7.2252 392.493 7.6919 392.01 8.4752C391.526 9.2419 391.085 10.0085 390.685 10.7752L390.56 11.0002H394.785ZM413.405 24.0002H408.63C408.58 25.9002 408.205 27.4002 407.505 28.5002C406.805 29.6169 405.772 30.1752 404.405 30.1752C404.039 30.1752 403.439 30.1502 402.605 30.1002V26.2252L402.98 26.2502C403.88 26.2502 404.33 25.5669 404.33 24.2002V11.4752H408.63V20.0752H413.405V24.0002ZM423.322 11.3002C425.306 11.3002 426.772 11.5752 427.722 12.1252C428.672 12.6752 429.272 13.3835 429.522 14.2502C429.772 15.1169 429.897 16.2835 429.897 17.7502V24.0002H413.397V20.0752H417.122C416.906 19.1419 416.797 18.3502 416.797 17.7002C416.797 16.9169 416.906 16.0085 417.122 14.9752C417.356 13.9419 417.606 13.0252 417.872 12.2252C418.339 11.9919 419.056 11.7835 420.022 11.6002C420.989 11.4002 422.089 11.3002 423.322 11.3002ZM420.922 17.7002C420.922 18.1169 420.956 18.5419 421.022 18.9752C421.106 19.4085 421.189 19.7752 421.272 20.0752H425.597V17.6502C425.597 17.0669 425.556 16.6169 425.472 16.3002C425.406 15.9835 425.181 15.7169 424.797 15.5002C424.414 15.2669 423.806 15.1502 422.972 15.1502C422.339 15.1502 421.739 15.2169 421.172 15.3502C421.006 16.2669 420.922 17.0502 420.922 17.7002Z" fill="#00FF6A"/>
</svg>
